{
  "accessors": [
    {
      "bufferView": 2,
      "componentType": 5126,
      "count": 2033,
      "max": [
        7.441895484924316,
        12.328927040100098,
        3.8729169368743896
      ],
      "min": [
        -7.421290874481201,
        -6.299301624298096,
        -8.128902435302734
      ],
      "type": "VEC3"
    },
    {
      "bufferView": 2,
      "byteOffset": 24396,
      "componentType": 5126,
      "count": 2033,
      "max": [
        0.9998745322227478,
        0.9995348453521729,
        0.9993860721588135
      ],
      "min": [
        -0.9997339844703674,
        -0.9332301616668701,
        -0.9999748468399048
      ],
      "type": "VEC3"
    },
    {
      "bufferView": 3,
      "componentType": 5126,
      "count": 2033,
      "max": [
        0.9984775185585022,
        0.999908983707428,
        0.9958949685096741,
        1.0
      ],
      "min": [
        -0.9999035000801086,
        -0.9992234110832214,
        -0.9992376565933228,
        -1.0
      ],
      "type": "VEC4"
    },
    {
      "bufferView": 1,
      "componentType": 5126,
      "count": 2033,
      "max": [
        0.9879823923110962,
        0.9936730265617371
      ],
      "min": [
        0.005458890460431576,
        0.02521486021578312
      ],
      "type": "VEC2"
    },
    {
      "bufferView": 0,
      "componentType": 5125,
      "count": 9927,
      "type": "SCALAR"
    }
  ],
  "asset": {
    "extras": {
      "author": "Aliosa (https://sketchfab.com/aliosa123)",
      "license": "CC-BY-4.0 (http://creativecommons.org/licenses/by/4.0/)",
      "source": "https://sketchfab.com/3d-models/realistic-cracked-tree-game-ready-prop-b0edfdc157e94ea093ee959c65db38de",
      "title": "Realistic Cracked Tree Game-Ready prop"
    },
    "generator": "Sketchfab-12.65.0",
    "version": "2.0"
  },
  "bufferViews": [
    {
      "buffer": 0,
      "byteLength": 39708,
      "name": "floatBufferViews",
      "target": 34963
    },
    {
      "buffer": 0,
      "byteLength": 16264,
      "byteOffset": 39708,
      "byteStride": 8,
      "name": "floatBufferViews",
      "target": 34962
    },
    {
      "buffer": 0,
      "byteLength": 48792,
      "byteOffset": 55972,
      "byteStride": 12,
      "name": "floatBufferViews",
      "target": 34962
    },
    {
      "buffer": 0,
      "byteLength": 32528,
      "byteOffset": 104764,
      "byteStride": 16,
      "name": "floatBufferViews",
      "target": 34962
    }
  ],
  "buffers": [
    {
      "byteLength": 137292,
      "uri": "scene.bin"
    }
  ],
  "images": [
    {
      "uri": "textures/Scene_-_Root_baseColor.png"
    },
    {
      "uri": "textures/Scene_-_Root_metallicRoughness.png"
    },
    {
      "uri": "textures/Scene_-_Root_normal.png"
    }
  ],
  "materials": [
    {
      "doubleSided": true,
      "name": "Scene_-_Root",
      "normalTexture": {
        "index": 2
      },
      "occlusionTexture": {
        "index": 1
      },
      "pbrMetallicRoughness": {
        "baseColorTexture": {
          "index": 0
        },
        "metallicFactor": 0.0,
        "metallicRoughnessTexture": {
          "index": 1
        }
      }
    }
  ],
  "meshes": [
    {
      "name": "crackedTreeLow__0",
      "primitives": [
        {
          "attributes": {
            "NORMAL": 1,
            "POSITION": 0,
            "TANGENT": 2,
            "TEXCOORD_0": 3
          },
          "indices": 4,
          "material": 0,
          "mode": 4
        }
      ]
    }
  ],
  "nodes": [
    {
      "children": [
        1
      ],
      "matrix": [
        1.0,
        0.0,
        0.0,
        0.0,
        0.0,
        2.220446049250313e-16,
        -1.0,
        0.0,
        0.0,
        1.0,
        2.220446049250313e-16,
        0.0,
        0.0,
        0.0,
        0.0,
        1.0
      ],
      "name": "Sketchfab_model"
    },
    {
      "children": [
        2
      ],
      "matrix": [
        1.0,
        0.0,
        0.0,
        0.0,
        0.0,
        0.0,
        1.0,
        0.0,
        0.0,
        -1.0,
        0.0,
        0.0,
        0.0,
        0.0,
        0.0,
        1.0
      ],
      "name": "6479d200f63247f493b9039e911194f7.fbx"
    },
    {
      "children": [
        3
      ],
      "name": "RootNode"
    },
    {
      "children": [
        4
      ],
      "matrix": [
        0.009999999776482582,
        0.0,
        0.0,
        0.0,
        0.0,
        2.2204459996194763e-18,
        -0.009999999776482582,
        0.0,
        0.0,
        0.009999999776482582,
        2.2204459996194763e-18,
        0.0,
        0.0,
        0.0,
        0.0,
        1.0
      ],
      "name": "crackedTreeLow"
    },
    {
      "children": [
        5
      ],
      "matrix": [
        18.86343964108273,
        0.8847357063849106,
        -0.09788503522279117,
        0.0,
        0.07151863377533355,
        0.563535213959215,
        18.87588999506719,
        0.0,
        0.887256264770545,
        -18.855272286866075,
        0.5595579625296361,
        0.0,
        -6.428233623504639,
        -23.36562728881836,
        96.40620422363281,
        1.0
      ],
      "name": "Object_4"
    },
    {
      "mesh": 0,
      "name": "crackedTreeLow__0"
    }
  ],
  "samplers": [
    {
      "magFilter": 9729,
      "minFilter": 9987,
      "wrapS": 10497,
      "wrapT": 10497
    }
  ],
  "scene": 0,
  "scenes": [
    {
      "name": "Sketchfab_Scene",
      "nodes": [
        0
      ]
    }
  ],
  "textures": [
    {
      "sampler": 0,
      "source": 0
    },
    {
      "sampler": 0,
      "source": 1
    },
    {
      "sampler": 0,
      "source": 2
    }
  ]
}
